<svg xmlns="http://www.w3.org/2000/svg" width="65.02" height="80.227" viewBox="0 0 65.02 80.227">
  <g id="Group_183" data-name="Group 183" transform="translate(-127.773 0)">
    <g id="Group_1" data-name="Group 1" transform="translate(127.773 25.163)">
      <path id="Path_4" data-name="Path 4" d="M453.109,305.873a27.849,27.849,0,0,1-6.6-54.906,5.684,5.684,0,1,1,2.691,11.044,16.479,16.479,0,1,0,19.916,12.105,5.684,5.684,0,1,1,11.045-2.692,27.85,27.85,0,0,1-20.46,33.652A27.954,27.954,0,0,1,453.109,305.873Z" transform="translate(-425.258 -250.808)" fill="#6843b7"/>
    </g>
    <path id="Path_5" data-name="Path 5" d="M502.876,223.131a16.373,16.373,0,1,0-29.311,10.331,6.08,6.08,0,0,1,.555,6.711l-2.735,4.893a5.993,5.993,0,0,1-5.207,3.082,10.9,10.9,0,0,0-4.85,1.159,11.52,11.52,0,0,0-6.279,11.612,11.388,11.388,0,1,0,21.188-7.041,6.3,6.3,0,0,1-.2-6.246l2.713-4.855a6.123,6.123,0,0,1,6.045-3.043,16.581,16.581,0,0,0,9.356-1.79C499,235.461,503.053,228.574,502.876,223.131Z" transform="translate(-310.088 -207.099)" fill="#3fb4c8"/>
  </g>
</svg>
