<svg xmlns="http://www.w3.org/2000/svg" width="144.044" height="59.924" viewBox="0 0 144.044 59.924">
  <g id="Logo" transform="translate(-203.309 -207.099)">
    <g id="Group_2" data-name="Group 2" transform="translate(203.309 207.099)">
      <path id="Path_1" data-name="Path 1" d="M220.26,282.093H207.614c-2.8,0-4.305-1.481-4.305-4.238v-22.6c0-2.556,1.322-3.991,3.7-3.991s3.722,1.457,3.722,3.991V275.9h9.53a3.095,3.095,0,1,1,0,6.188Z" transform="translate(-203.309 -236.648)" fill="#6843b7"/>
      <path id="Path_2" data-name="Path 2" d="M269.383,256.176c0-2.736,1.5-4.239,4.305-4.239h13.88a2.938,2.938,0,0,1,0,5.875H276.714v6.614h10.315a2.573,2.573,0,0,1,2.668,2.736,2.525,2.525,0,0,1-2.668,2.691H276.714v6.815h10.762a2.939,2.939,0,1,1-.022,5.875H273.688c-2.8,0-4.305-1.481-4.305-4.238Z" transform="translate(-247.517 -237.099)" fill="#6843b7"/>
      <path id="Path_3" data-name="Path 3" d="M345.887,282.318c-2.175,0-3.453-1.459-3.453-3.857V255.612c0-2.87,1.233-4.349,3.677-4.349,1.637,0,2.578.806,4.058,2.96L360.484,269.6h.292V255.118c0-2.42,1.256-3.855,3.408-3.855,2.175,0,3.476,1.435,3.476,3.855v23.074c0,2.691-1.211,4.126-3.476,4.126-1.659,0-2.668-.7-4.193-2.938l-10.4-15.584H349.3v14.665C349.3,280.883,348.063,282.318,345.887,282.318Z" transform="translate(-296.393 -236.648)" fill="#6843b7"/>
      <g id="Group_1" data-name="Group 1" transform="translate(73.449 14.465)">
        <path id="Path_4" data-name="Path 4" d="M441.268,282.462a16.009,16.009,0,0,1-3.792-31.562,3.267,3.267,0,1,1,1.547,6.349,9.473,9.473,0,1,0,11.449,6.958,3.267,3.267,0,1,1,6.349-1.547A16.01,16.01,0,0,1,445.059,282,16.07,16.07,0,0,1,441.268,282.462Z" transform="translate(-425.258 -250.808)" fill="#6843b7"/>
      </g>
      <path id="Path_5" data-name="Path 5" d="M482.5,216.315a9.412,9.412,0,1,0-16.849,5.939,3.5,3.5,0,0,1,.319,3.858l-1.572,2.813a3.445,3.445,0,0,1-2.993,1.771,6.265,6.265,0,0,0-2.788.666,6.622,6.622,0,0,0-3.609,6.675,6.546,6.546,0,1,0,12.18-4.047,3.619,3.619,0,0,1-.116-3.591l1.56-2.791a3.52,3.52,0,0,1,3.475-1.749,9.531,9.531,0,0,0,5.378-1.029A10.341,10.341,0,0,0,482.5,216.315Z" transform="translate(-371.681 -207.099)" fill="#3fb4c8"/>
      <path id="Path_6" data-name="Path 6" d="M534.509,256.176c0-2.736,1.5-4.239,4.305-4.239h9.26c5.785,0,9.417,2.894,9.417,7.511a6.454,6.454,0,0,1-5.47,6.683v.336a7.137,7.137,0,0,1,6.928,7.4c0,5.2-4.26,8.678-10.651,8.678h-9.484c-2.8,0-4.305-1.481-4.305-4.238Zm10.9,8.206c3.386,0,4.844-1.481,4.844-3.654,0-2.153-1.48-3.543-4.059-3.543h-4.35v7.2Zm.4,12.915c3.969,0,5.606-1.546,5.606-4.036s-1.637-4.126-4.865-4.126H541.84V277.3Z" transform="translate(-424.905 -237.099)" fill="#6843b7"/>
      <path id="Path_7" data-name="Path 7" d="M619.823,295.826c-2.287,0-3.587-1.369-3.587-3.947V275.4c0-2.579,1.323-3.947,3.587-3.947,2.288,0,3.61,1.367,3.61,3.947v16.48C623.434,294.457,622.111,295.826,619.823,295.826Z" transform="translate(-479.586 -250.156)" fill="#6843b7"/>
      <circle id="Ellipse_1" data-name="Ellipse 1" cx="3.796" cy="3.796" r="3.796" transform="translate(136.453 11.341)" fill="#3fb4c8"/>
    </g>
    <g id="Group_3" data-name="Group 3" transform="translate(222.349 255.858)">
      <path id="Path_8" data-name="Path 8" d="M262.416,363.217l-.1,1.258a.545.545,0,0,1-.577.537c-.472,0-.642-.943-.747-2.8-.026-.524-.1-1.14-.144-1.874a.843.843,0,0,1,.878-.865.863.863,0,0,1,.9.851Zm-1.284,3a.6.6,0,0,1,.6-.589.617.617,0,0,1,.616.576v.052a.61.61,0,0,1-1.218-.039Z" transform="translate(-260.843 -357.805)" fill="#3fb4c8"/>
      <path id="Path_9" data-name="Path 9" d="M273.566,369.9v-5.884a2.05,2.05,0,0,0-1.939-2.306,2.145,2.145,0,0,0-1.206.406,1.53,1.53,0,0,1-.616.249.462.462,0,0,1-.092-.184.581.581,0,0,1,.17-.314,3.556,3.556,0,0,1,2.516-1.009,2.84,2.84,0,0,1,2.778,3.066v5.333a.609.609,0,0,1-.629.642Z" transform="translate(-266.778 -358.732)" fill="#3fb4c8"/>
      <path id="Path_10" data-name="Path 10" d="M290.187,364.592V361.8a.543.543,0,0,1,.616-.55h1v2.739a.592.592,0,0,1-.629.6Z" transform="translate(-280.476 -358.997)" fill="#3fb4c8"/>
      <path id="Path_11" data-name="Path 11" d="M298.344,354.44h.93a.547.547,0,0,1,.616.524v1.73h2.935a.8.8,0,0,1,.812.93l-.262,2.778c-.236,2.529-2.293,3.866-4.377,2.8-1.166-.589.76-.393.983-.393,1.494,0,1.7-1.35,1.809-2.529l.236-2.66-3.237-.21a.523.523,0,0,1-.445-.524Z" transform="translate(-285.934 -354.44)" fill="#3fb4c8"/>
      <path id="Path_12" data-name="Path 12" d="M316.361,367.96a14.075,14.075,0,0,0,3.25-.537,3.182,3.182,0,0,1-2.084-2.712l-.695-3.46h1.009a.741.741,0,0,1,.616.577l.642,2.66c.079.315.157.629.236.918a4.987,4.987,0,0,0,.249.747c.2.432.446.642.786.642.983,0,.852-1.468.852-2.175v-3.368h1.048a.56.56,0,0,1,.563.59v2.778c0,1.926-.459,4.023-6.473,3.97Z" transform="translate(-297.988 -358.997)" fill="#3fb4c8"/>
      <path id="Path_13" data-name="Path 13" d="M349.585,368v-6.185a.552.552,0,0,1,.616-.564h1v6.12a.621.621,0,0,1-.629.629Z" transform="translate(-320.218 -358.997)" fill="#3fb4c8"/>
      <path id="Path_14" data-name="Path 14" d="M363.088,367.079a.624.624,0,0,1-.629.655h-.983v-3.761a2.255,2.255,0,0,0-.8-1.874,1.69,1.69,0,0,0-1.14-.406,1.889,1.889,0,0,0-.708.131c-.131.066-.341.17-.6.328a.969.969,0,0,1-.511.2.462.462,0,0,1-.092-.183.509.509,0,0,1,.17-.3,3.556,3.556,0,0,1,2.516-1.009,3.057,3.057,0,0,1,.865.131,2.575,2.575,0,0,1,1.677,1.638,3.265,3.265,0,0,1,.236,1.271Z" transform="translate(-325.596 -358.732)" fill="#3fb4c8"/>
      <path id="Path_15" data-name="Path 15" d="M379.946,361.405a4.5,4.5,0,0,1,1.887-.55,2.785,2.785,0,0,1,2.765,3.04v3.839h-.943a.586.586,0,0,1-.668-.576v-3.184a2.031,2.031,0,0,0-1.9-2.28,3.491,3.491,0,0,0-1.14.38v5.661h-.957s-.655-.013-.655-.576v-5.6a.581.581,0,0,1,.655-.576h.957Z" transform="translate(-339.453 -358.732)" fill="#3fb4c8"/>
      <path id="Path_16" data-name="Path 16" d="M402.507,361.405a5.3,5.3,0,0,1,1.939-.55c1.559,0,2.529,1.284,2.529,3.027v3.237a.621.621,0,0,1-.629.629h-1v-3.774c0-1.232-.223-2.293-1.677-2.293a3.111,3.111,0,0,0-1.166.406v2.948c0,2.123-.773,2.974-2.634,2.974h-.144c-.223-.144-.288-.262-.288-.38,0-.21.3-.354.3-.354.76-.079,1.166-.406,1.166-2.319v-3.394a.581.581,0,0,1,.655-.576h.944Z" transform="translate(-353.575 -358.732)" fill="#3fb4c8"/>
      <path id="Path_17" data-name="Path 17" d="M425.774,364.592V361.8a.543.543,0,0,1,.616-.55h1v2.739a.592.592,0,0,1-.629.6Z" transform="translate(-371.193 -358.997)" fill="#3fb4c8"/>
      <path id="Path_18" data-name="Path 18" d="M446.711,361.405a4.5,4.5,0,0,1,1.887-.55,2.815,2.815,0,0,1,2.765,3.04v3.839h-5.608s-.655-.013-.655-.576v-5.6a.58.58,0,0,1,.655-.576h.957Zm3.04,2.568a2.038,2.038,0,0,0-1.9-2.28,3.492,3.492,0,0,0-1.14.38v4.94h3.04Z" transform="translate(-384.123 -358.732)" fill="#3fb4c8"/>
      <path id="Path_19" data-name="Path 19" d="M467.987,364.592V361.8a.543.543,0,0,1,.616-.55h1v2.739a.592.592,0,0,1-.629.6Z" transform="translate(-399.437 -358.997)" fill="#3fb4c8"/>
      <path id="Path_20" data-name="Path 20" d="M478.534,367.315v1.952a.676.676,0,0,1-.629.629h-.983v-5.1a.97.97,0,0,1,.825-.891l1.192-.157a1.251,1.251,0,0,0-.406,1.009v1.874a1.756,1.756,0,0,0,.459.052,2.1,2.1,0,0,0,2.2-2.359c0-1.769-1.087-2.621-2.2-2.621a2.461,2.461,0,0,0-1.572.459.969.969,0,0,1-.511.2.462.462,0,0,1-.092-.184.581.581,0,0,1,.17-.314,3.552,3.552,0,0,1,2.778-1.009c1.651,0,3.053,1.14,3.053,3.5a2.9,2.9,0,0,1-3.053,3.171A3.866,3.866,0,0,1,478.534,367.315Z" transform="translate(-405.345 -358.732)" fill="#3fb4c8"/>
      <path id="Path_21" data-name="Path 21" d="M497.527,362.008a.316.316,0,0,1,.118-.236,3.55,3.55,0,0,1,2.293-.917,2.114,2.114,0,0,1,1.966,2.228v4.18a.477.477,0,0,1-.485.472h-3.682a.329.329,0,0,1-.21-.262.5.5,0,0,1,.432-.406l2.162-.249c.092,0,.183.013.183-.079v-3.486c0-1.127-.157-1.586-.917-1.586a3.9,3.9,0,0,0-1.573.459C497.737,362.165,497.527,362.152,497.527,362.008Z" transform="translate(-419.201 -358.732)" fill="#3fb4c8"/>
      <path id="Path_22" data-name="Path 22" d="M513.445,367.734v-.288a.423.423,0,0,1,.445-.432l3.25-.2v-2.844a2.042,2.042,0,0,0-1.94-2.28,2.211,2.211,0,0,0-1.31.459,1.366,1.366,0,0,1-.419.2.187.187,0,0,1-.183-.183.51.51,0,0,1,.17-.3,3.556,3.556,0,0,1,2.516-1.009,2.81,2.81,0,0,1,2.778,3.04v2.83h.668v.6c0,.406-.432.406-.432.406Z" transform="translate(-429.747 -358.732)" fill="#3fb4c8"/>
      <path id="Path_23" data-name="Path 23" d="M539.259,367.734v-3.551a2.263,2.263,0,0,0-2.4-2.49,2.315,2.315,0,0,0-1.546.459,1.37,1.37,0,0,1-.419.2.187.187,0,0,1-.183-.183.579.579,0,0,1,.17-.3,3.568,3.568,0,0,1,2.738-1.009,2.965,2.965,0,0,1,3.25,3.25v3.053c0,.576-.642.576-.642.576Zm-2.752-.616a.675.675,0,0,1-.629.616H534.9v-2.608a.941.941,0,0,1,.8-.878l1.218-.157a1.708,1.708,0,0,0-.406,1Z" transform="translate(-444.081 -358.732)" fill="#3fb4c8"/>
      <path id="Path_24" data-name="Path 24" d="M558.486,365.09a2.1,2.1,0,0,0,2.333,2.28c1.638,0,2.2-1.009,2.2-2.437v-3.682h1.022s.59.013.59.5v2.922c0,2.411-1.73,3.459-3.813,3.459-2.163,0-3.931-1.114-3.931-3.263v-3.616h1.127a.479.479,0,0,1,.327.144.444.444,0,0,1,.158.354V363.7a5.2,5.2,0,0,0,.576.865c.419.432,1,.563,1-.118v-3.2h1s.616.013.616.5v2.9c0,2.175-2.529,1.795-3.2.3Z" transform="translate(-458.918 -358.997)" fill="#3fb4c8"/>
    </g>
  </g>
</svg>
