<svg xmlns="http://www.w3.org/2000/svg" width="250.581" height="104.245" viewBox="0 0 250.581 104.245">
  <g id="Logo" transform="translate(-203.309 -207.099)">
    <g id="Group_2" data-name="Group 2" transform="translate(203.309 207.099)">
      <path id="Path_1" data-name="Path 1" d="M232.8,304.9h-22c-4.877,0-7.489-2.576-7.489-7.372V258.205c0-4.446,2.3-6.942,6.434-6.942s6.475,2.535,6.475,6.942V294.13H232.8a5.384,5.384,0,1,1,0,10.765Z" transform="translate(-203.309 -225.838)" fill="#6843b7"/>
      <path id="Path_2" data-name="Path 2" d="M269.383,259.312c0-4.76,2.612-7.375,7.489-7.375h24.145a5.111,5.111,0,0,1,0,10.221h-18.88v11.506H300.08a4.476,4.476,0,0,1,4.641,4.76,4.393,4.393,0,0,1-4.641,4.681H282.137V294.96h18.722a4.885,4.885,0,0,1,5.228,5.11c0,3.12-2.107,5.11-5.266,5.11H276.872c-4.877,0-7.489-2.576-7.489-7.372Z" transform="translate(-231.345 -226.124)" fill="#6843b7"/>
      <path id="Path_3" data-name="Path 3" d="M348.441,305.286c-3.784,0-6.007-2.538-6.007-6.71V258.829c0-4.993,2.145-7.566,6.4-7.566,2.848,0,4.485,1.4,7.06,5.148l17.944,26.757h.507v-25.2c0-4.211,2.185-6.707,5.928-6.707,3.784,0,6.047,2.5,6.047,6.707v40.139c0,4.681-2.107,7.177-6.047,7.177-2.886,0-4.641-1.211-7.293-5.11l-18.1-27.11h-.507v25.511C354.371,302.79,352.226,305.286,348.441,305.286Z" transform="translate(-262.341 -225.838)" fill="#6843b7"/>
      <g id="Group_1" data-name="Group 1" transform="translate(127.773 25.163)">
        <path id="Path_4" data-name="Path 4" d="M453.109,305.873a27.849,27.849,0,0,1-6.6-54.906,5.684,5.684,0,1,1,2.691,11.044,16.479,16.479,0,1,0,19.916,12.105,5.684,5.684,0,1,1,11.045-2.692,27.85,27.85,0,0,1-20.46,33.652A27.954,27.954,0,0,1,453.109,305.873Z" transform="translate(-425.258 -250.808)" fill="#6843b7"/>
      </g>
      <path id="Path_5" data-name="Path 5" d="M502.876,223.131a16.373,16.373,0,1,0-29.311,10.331,6.08,6.08,0,0,1,.555,6.711l-2.735,4.893a5.993,5.993,0,0,1-5.207,3.082,10.9,10.9,0,0,0-4.85,1.159,11.52,11.52,0,0,0-6.279,11.612,11.388,11.388,0,1,0,21.188-7.041,6.3,6.3,0,0,1-.2-6.246l2.713-4.855a6.123,6.123,0,0,1,6.045-3.043,16.581,16.581,0,0,0,9.356-1.79C499,235.461,503.053,228.574,502.876,223.131Z" transform="translate(-310.087 -207.099)" fill="#3fb4c8"/>
      <path id="Path_6" data-name="Path 6" d="M534.509,259.312c0-4.76,2.613-7.375,7.489-7.375h16.109c10.063,0,16.382,5.034,16.382,13.067,0,6.087-3.667,10.532-9.516,11.627v.585a12.416,12.416,0,0,1,12.052,12.87c0,9.05-7.411,15.1-18.529,15.1H542c-4.877,0-7.489-2.576-7.489-7.372Zm18.956,14.275c5.89,0,8.426-2.576,8.426-6.357,0-3.746-2.574-6.163-7.061-6.163h-7.567v12.52Zm.7,22.467c6.9,0,9.752-2.69,9.752-7.022s-2.848-7.177-8.464-7.177h-8.192v14.2Z" transform="translate(-343.841 -226.124)" fill="#6843b7"/>
      <path id="Path_7" data-name="Path 7" d="M622.476,313.853c-3.978,0-6.24-2.382-6.24-6.866V278.319c0-4.487,2.3-6.866,6.24-6.866,3.98,0,6.281,2.379,6.281,6.866v28.669C628.757,311.471,626.457,313.853,622.476,313.853Z" transform="translate(-378.519 -234.405)" fill="#6843b7"/>
      <circle id="Ellipse_1" data-name="Ellipse 1" cx="6.603" cy="6.603" r="6.603" transform="translate(237.374 19.729)" fill="#3fb4c8"/>
    </g>
    <g id="Group_3" data-name="Group 3" transform="translate(236.431 291.921)">
      <path id="Path_8" data-name="Path 8" d="M263.579,365.989l-.182,2.189a.947.947,0,0,1-1,.934c-.821,0-1.117-1.641-1.3-4.878-.045-.912-.182-1.983-.25-3.26a1.466,1.466,0,0,1,1.527-1.5,1.5,1.5,0,0,1,1.573,1.481Zm-2.234,5.22a1.04,1.04,0,0,1,1.049-1.025,1.074,1.074,0,0,1,1.071,1v.091a1.061,1.061,0,0,1-2.12-.069Z" transform="translate(-260.843 -356.574)" fill="#3fb4c8"/>
      <path id="Path_9" data-name="Path 9" d="M276.416,376.584V366.349c0-2.348-1.368-4.012-3.374-4.012a3.731,3.731,0,0,0-2.1.706,2.661,2.661,0,0,1-1.071.434.8.8,0,0,1-.159-.32,1.01,1.01,0,0,1,.3-.547,6.186,6.186,0,0,1,4.377-1.755c2.53,0,4.832,1.983,4.832,5.334v9.277a1.059,1.059,0,0,1-1.094,1.117Z" transform="translate(-264.607 -357.162)" fill="#3fb4c8"/>
      <path id="Path_10" data-name="Path 10" d="M290.187,367.064v-4.855a.944.944,0,0,1,1.071-.957h1.733v4.764a1.03,1.03,0,0,1-1.094,1.048Z" transform="translate(-273.294 -357.33)" fill="#3fb4c8"/>
      <path id="Path_11" data-name="Path 11" d="M298.344,354.44h1.618a.951.951,0,0,1,1.072.912v3.009h5.106a1.389,1.389,0,0,1,1.413,1.618l-.456,4.833c-.41,4.4-3.989,6.725-7.614,4.878-2.029-1.025,1.322-.683,1.709-.683,2.6,0,2.964-2.348,3.146-4.4l.41-4.627-5.631-.364a.91.91,0,0,1-.775-.911Z" transform="translate(-276.755 -354.44)" fill="#3fb4c8"/>
      <path id="Path_12" data-name="Path 12" d="M316.361,372.922a24.485,24.485,0,0,0,5.654-.934,5.536,5.536,0,0,1-3.625-4.718l-1.208-6.018h1.755a1.289,1.289,0,0,1,1.071,1l1.117,4.627c.137.547.273,1.094.41,1.6a8.675,8.675,0,0,0,.433,1.3c.342.752.775,1.117,1.368,1.117,1.71,0,1.482-2.554,1.482-3.784v-5.859h1.824a.974.974,0,0,1,.98,1.026v4.833c0,3.35-.8,7-11.261,6.907Z" transform="translate(-284.4 -357.33)" fill="#3fb4c8"/>
      <path id="Path_13" data-name="Path 13" d="M349.585,372.99V362.231a.961.961,0,0,1,1.072-.98h1.732V371.9a1.08,1.08,0,0,1-1.094,1.094Z" transform="translate(-298.497 -357.33)" fill="#3fb4c8"/>
      <path id="Path_14" data-name="Path 14" d="M367.129,371.683a1.086,1.086,0,0,1-1.094,1.139h-1.71V366.28a3.923,3.923,0,0,0-1.39-3.26,2.939,2.939,0,0,0-1.983-.707,3.286,3.286,0,0,0-1.231.228c-.228.114-.593.3-1.049.57a1.685,1.685,0,0,1-.889.342.8.8,0,0,1-.159-.319.886.886,0,0,1,.3-.525,6.186,6.186,0,0,1,4.376-1.755,5.321,5.321,0,0,1,1.5.228,4.479,4.479,0,0,1,2.918,2.85,5.679,5.679,0,0,1,.41,2.211Z" transform="translate(-301.908 -357.162)" fill="#3fb4c8"/>
      <path id="Path_15" data-name="Path 15" d="M381.138,361.812a7.825,7.825,0,0,1,3.283-.957c2.667,0,4.809,2.006,4.809,5.289v6.679h-1.641a1.019,1.019,0,0,1-1.163-1V366.28c0-2.393-1.436-3.966-3.306-3.966a6.072,6.072,0,0,0-1.983.661v9.847h-1.664s-1.14-.023-1.14-1v-9.734a1.01,1.01,0,0,1,1.14-1h1.664Z" transform="translate(-310.696 -357.162)" fill="#3fb4c8"/>
      <path id="Path_16" data-name="Path 16" d="M404.775,361.812a9.214,9.214,0,0,1,3.374-.957c2.713,0,4.4,2.234,4.4,5.266v5.63a1.08,1.08,0,0,1-1.094,1.094h-1.732V366.28c0-2.143-.387-3.99-2.918-3.99a5.412,5.412,0,0,0-2.028.707v5.129c0,3.693-1.345,5.174-4.582,5.174h-.251c-.387-.25-.5-.455-.5-.66,0-.365.524-.615.524-.615,1.322-.137,2.028-.707,2.028-4.035v-5.9a1.01,1.01,0,0,1,1.14-1h1.642Z" transform="translate(-319.652 -357.162)" fill="#3fb4c8"/>
      <path id="Path_17" data-name="Path 17" d="M425.774,367.064v-4.855a.945.945,0,0,1,1.072-.957h1.732v4.764a1.03,1.03,0,0,1-1.094,1.048Z" transform="translate(-330.825 -357.33)" fill="#3fb4c8"/>
      <path id="Path_18" data-name="Path 18" d="M447.9,361.812a7.827,7.827,0,0,1,3.283-.957c2.622,0,4.809,2.052,4.809,5.289v6.679h-9.756s-1.139-.023-1.139-1v-9.734a1.01,1.01,0,0,1,1.139-1H447.9Zm5.288,4.468c0-2.393-1.459-3.966-3.305-3.966a6.074,6.074,0,0,0-1.983.661v8.594h5.288Z" transform="translate(-339.025 -357.162)" fill="#3fb4c8"/>
      <path id="Path_19" data-name="Path 19" d="M467.987,367.064v-4.855a.945.945,0,0,1,1.072-.957h1.732v4.764a1.03,1.03,0,0,1-1.094,1.048Z" transform="translate(-348.737 -357.33)" fill="#3fb4c8"/>
      <path id="Path_20" data-name="Path 20" d="M479.8,372.094v3.4a1.176,1.176,0,0,1-1.094,1.094H477v-8.868a1.687,1.687,0,0,1,1.436-1.55l2.074-.273a2.176,2.176,0,0,0-.706,1.755v3.26a3.055,3.055,0,0,0,.8.091c2.143,0,3.83-1.3,3.83-4.1,0-3.077-1.892-4.559-3.83-4.559a4.281,4.281,0,0,0-2.735.8,1.687,1.687,0,0,1-.889.342.8.8,0,0,1-.159-.32,1.01,1.01,0,0,1,.3-.547,6.18,6.18,0,0,1,4.833-1.755c2.872,0,5.311,1.983,5.311,6.087,0,3.875-2.576,5.516-5.311,5.516A6.727,6.727,0,0,1,479.8,372.094Z" transform="translate(-352.483 -357.162)" fill="#3fb4c8"/>
      <path id="Path_21" data-name="Path 21" d="M497.527,362.861a.55.55,0,0,1,.205-.41,6.176,6.176,0,0,1,3.989-1.6c2.28,0,3.419,2.188,3.419,3.875V372a.83.83,0,0,1-.843.82h-6.406a.572.572,0,0,1-.365-.456.878.878,0,0,1,.752-.706l3.762-.433c.16,0,.319.022.319-.137v-6.064c0-1.96-.273-2.758-1.6-2.758a6.78,6.78,0,0,0-2.736.8C497.892,363.135,497.527,363.112,497.527,362.861Z" transform="translate(-361.271 -357.162)" fill="#3fb4c8"/>
      <path id="Path_22" data-name="Path 22" d="M513.561,372.822v-.5a.736.736,0,0,1,.775-.752l5.653-.342V366.28c0-2.371-1.436-3.966-3.374-3.966a3.846,3.846,0,0,0-2.279.8,2.376,2.376,0,0,1-.729.342.326.326,0,0,1-.319-.319.887.887,0,0,1,.3-.525,6.186,6.186,0,0,1,4.377-1.755c2.69,0,4.833,2.075,4.833,5.289v4.924h1.162v1.048c0,.706-.752.706-.752.706Z" transform="translate(-367.958 -357.162)" fill="#3fb4c8"/>
      <path id="Path_23" data-name="Path 23" d="M542.621,372.822v-6.177c0-2.758-1.664-4.331-4.171-4.331a4.026,4.026,0,0,0-2.69.8,2.382,2.382,0,0,1-.729.342.326.326,0,0,1-.319-.319,1.008,1.008,0,0,1,.3-.525,6.207,6.207,0,0,1,4.764-1.755c3.511,0,5.653,2.006,5.653,5.654v5.311c0,1-1.117,1-1.117,1Zm-4.787-1.071a1.173,1.173,0,0,1-1.094,1.071h-1.709v-4.536a1.637,1.637,0,0,1,1.391-1.527l2.119-.273a2.971,2.971,0,0,0-.706,1.732Z" transform="translate(-377.049 -357.162)" fill="#3fb4c8"/>
      <path id="Path_24" data-name="Path 24" d="M559.669,367.93c0,2.257,1.208,3.966,4.058,3.966s3.83-1.755,3.83-4.24v-6.406h1.778s1.026.023,1.026.867V367.2c0,4.195-3.009,6.018-6.633,6.018-3.762,0-6.839-1.937-6.839-5.676v-6.291h1.96a.833.833,0,0,1,.569.25.772.772,0,0,1,.274.616v3.4a9.047,9.047,0,0,0,1,1.5c.729.752,1.733.98,1.733-.205v-5.562h1.732s1.071.023,1.071.867v5.038c0,3.784-4.4,3.123-5.562.524Z" transform="translate(-386.458 -357.33)" fill="#3fb4c8"/>
    </g>
  </g>
</svg>
