<svg xmlns="http://www.w3.org/2000/svg" width="21.951" height="21.951" viewBox="0 0 21.951 21.951">
  <g id="Group_11" data-name="Group 11" transform="translate(-28 -25)">
    <g id="Group_6" data-name="Group 6" transform="translate(28 25)">
      <g id="Group_5" data-name="Group 5" transform="translate(0 0)">
        <path id="Path_25" data-name="Path 25" d="M38.975,25A10.975,10.975,0,1,0,49.951,35.975,10.988,10.988,0,0,0,38.975,25Zm0,21A10.021,10.021,0,1,1,49,35.975,10.032,10.032,0,0,1,38.975,46Z" transform="translate(-28 -25)" fill="#fff"/>
      </g>
    </g>
    <g id="Group_8" data-name="Group 8" transform="translate(32.772 35.498)">
      <g id="Group_7" data-name="Group 7">
        <path id="Path_26" data-name="Path 26" d="M51.522,63.1a6.211,6.211,0,0,0-6.2,6.2.477.477,0,1,0,.954,0,5.249,5.249,0,0,1,10.5,0,.477.477,0,1,0,.954,0A6.211,6.211,0,0,0,51.522,63.1Z" transform="translate(-45.319 -63.101)" fill="#fff"/>
      </g>
    </g>
    <g id="Group_10" data-name="Group 10" transform="translate(35.635 27.863)">
      <g id="Group_9" data-name="Group 9" transform="translate(0 0)">
        <path id="Path_27" data-name="Path 27" d="M59.05,35.391a3.34,3.34,0,1,0,3.34,3.34A3.344,3.344,0,0,0,59.05,35.391Zm0,5.726a2.386,2.386,0,1,1,2.386-2.386A2.389,2.389,0,0,1,59.05,41.117Z" transform="translate(-55.71 -35.391)" fill="#fff"/>
      </g>
    </g>
  </g>
</svg>
