<svg xmlns="http://www.w3.org/2000/svg" width="190.373" height="71.615" viewBox="0 0 190.373 71.615">
  <g id="logo" transform="translate(-0.004 -318.061)">
    <path id="Path_63" data-name="Path 63" d="M358.8,352.022c.669-4.66-1.794-10.014-5.859-13.515-6.108-5.266-17.092-7.667-27.715-1.181a1.439,1.439,0,0,1-1.333.229c-.407-.241-.345-.839-.031-1.227,2.258-2.8,11.489-15.215,24.671-15.215A20.37,20.37,0,0,1,367.9,336.047a23.761,23.761,0,0,1,.922,5.887,14.848,14.848,0,0,1-7.749,9.011q-1.115.583-2.273,1.077" transform="translate(-222.94 -2.103)" fill="#4d555a"/>
    <path id="Path_64" data-name="Path 64" d="M187.754,325.818c3.111,2.811,19.9,17.607,21.929,19.393,10.929,9.638,20.929,6.882,27.158,3.631a14.831,14.831,0,0,0,7.749-9.012,23.777,23.777,0,0,1-10.921,20.648c-7.346,4.85-20.119,8.646-34.357-3.724-2.841-2.469-20.949-18-22.973-19.79-10.93-9.636-21.59-6.343-27.871-.873a20.377,20.377,0,0,0-5.183,6.843c.064-1.145-.162-7.557,6.422-15.358,3.155-3.736,9.294-9.514,19.64-9.514,6.005,0,11.409,1.427,18.407,7.757" transform="translate(-98.711)" fill="#f5821f"/>
    <path id="Path_65" data-name="Path 65" d="M45.354,383.61a21.7,21.7,0,0,1-.775-7.914,20.453,20.453,0,0,1,5.179-6.825,22.482,22.482,0,0,1,4.834-3.231c-1.075,4.873,1.433,10.224,5.72,13.917,6.114,5.267,16.7,7.679,27.322,1.193.547-.335,1.1-.422,1.333-.229A.845.845,0,0,1,89,381.748c-2.179,2.863-11.219,15.294-24.405,15.294-8.757,0-16.722-4.676-19.241-13.432M33.567,405.531c-.226,2.148-1.615,15.171-1.728,15.813a1.283,1.283,0,0,1-1.358,1.023H26.588l1.789-15.581H26a1.026,1.026,0,0,1-1.011-1.174,1.55,1.55,0,0,1,1.456-1.3H32.2c1.117,0,1.437.483,1.362,1.214m42.919,7.813c.607-4.9-3.036-9.025-8.741-9.025h-5.22c-1.418,0-2.795.366-3,1.822l-.8,6.919a1.386,1.386,0,0,0,.162.567.955.955,0,0,0,.851.446h4.819a1.465,1.465,0,0,0,1.374-1.212c.083-.81-.244-1.092-.689-1.092H63.867l.516-5.02h2.835c2.914,0,4.493,3.279,4.087,6.718-.445,3.44-2.83,6.556-5.583,6.556h-6.76a1.589,1.589,0,0,0-1.418,1.257.967.967,0,0,0,.971,1.09h6.879c5.548,0,10.524-4.088,11.091-9.026m-20.52-3.317c-.345,3.179-.888,8.57-1.227,11.237-.082.8-.46,1.1-1.126,1.1h-4.15c.241-1.942.842-7.932,1.248-10.805.485-3.6-1.213-4.776-4.13-4.776H43.451l-1.727,15.581H36.637l1.809-15.581H36.989a1.049,1.049,0,0,1-.97-1.214,1.465,1.465,0,0,1,1.374-1.255H49.376c6.071,0,6.956,2.389,6.59,5.708m-32.62,0c-.357,3.259-.92,8.821-1.24,11.4a.963.963,0,0,1-1.026.939H16.9c.244-1.942.8-7.932,1.208-10.805.566-3.927-1.661-4.776-4.127-4.776H10.8L9.157,421.966c-.04.4-.162.4-.284.4H1.023a1.121,1.121,0,0,1-1.011-1.254,1.411,1.411,0,0,1,1.418-1.134H4.268l1.519-13.194H4.381a1.048,1.048,0,0,1-.97-1.214,1.471,1.471,0,0,1,1.414-1.255H16.768c6.111,0,6.981,2.388,6.578,5.708m68.634,5.091.9-8.33H90.533a1.051,1.051,0,0,1-1.036-1.173,1.509,1.509,0,0,1,1.428-1.3h5.882c1.065,0,1.318.546,1.272,1.212-.071,1.048-.864,8.412-.864,8.412-.42,4.737-3.1,9.041-10.941,8.458-4.648-.342-7.977-3.763-7.6-8.458l.338-3.055.672-6.571s1.065,0,1.847,0c2.064,0,3.546,1.09,3.351,3.2l-.839,7.48a4.161,4.161,0,0,0,4.19,4.615c2.306,0,3.51-2.226,3.742-4.49m98.32-1.451c.607-4.938-2.307-9.348-10.28-9.348h-9.874a1.42,1.42,0,0,0-1.418,1.153,1.057,1.057,0,0,0,1.012,1.316h1.581L169.5,422.369h5.36s1.69-15.581,1.731-15.581h3.535c2.673,0,5.341,2.332,4.87,6.638-.488,4.087-.845,6.318-4.81,6.519l-.891.083a1.392,1.392,0,0,0-1.257,1.212,1,1,0,0,0,.878,1.132l1.051,0c7.527,0,9.723-3.567,10.329-8.708m-26.6-6.879s-1.545,14.266-1.584,14.521a1.223,1.223,0,0,1-1.275,1.06h-3.974l1.814-15.581h-1.821a1.066,1.066,0,0,1-.971-1.257,1.461,1.461,0,0,1,1.374-1.212h8.54a.948.948,0,0,1,.973,1.093,1.678,1.678,0,0,1-1.418,1.376H163.7m-9.546,3.279c-.321,3.137-.854,8.431-1.27,11.085a1.306,1.306,0,0,1-1.373,1.215h-3.993c.724-5.875.927-7.727,1.221-10.765.338-3.449-.966-4.894-4-4.894-1.779-.042-4.532,0-4.532,0a.951.951,0,0,1-.939-1.093,1.492,1.492,0,0,1,1.367-1.3h6.76c6.071,0,7.1,2.429,6.761,5.748m-16.613-.04q-.636,5.623-1.355,11.237c-.083.8-.46,1.1-1.126,1.1h-4.276c.24-1.942.968-7.932,1.374-10.805.485-3.6-1.214-4.776-4.128-4.776h-3.171l-1.687,15.581h-5.142l1.785-15.581h-1.382a1.05,1.05,0,0,1-.97-1.214,1.468,1.468,0,0,1,1.377-1.255h11.98c6.071,0,7.084,2.388,6.718,5.708m-22.124-4.5c-.116.992-.745,7.386-.864,8.283a1.223,1.223,0,0,1-1.367.979H109.7l.9-8.006h-2.752a1.025,1.025,0,0,1-1.013-1.174,1.552,1.552,0,0,1,1.456-1.3h5.778c.924,0,1.431.5,1.346,1.213" transform="translate(0 -32.779)" fill="#4d555a"/>
  </g>
</svg>
