<svg xmlns="http://www.w3.org/2000/svg" width="154" height="50" viewBox="0 0 154 50">
  <g id="Logo" transform="translate(0 0)">
    <rect id="Logo_Default_background" data-name="Logo / Default background" width="154" height="50" fill="none"/>
    <g id="Logo-2" data-name="Logo">
      <g id="Vision_Enabler" data-name="Vision Enabler" transform="translate(61.667 5.833)">
        <path id="VISION" d="M59.865,15.687a3.88,3.88,0,0,1-1.019-2.167L56.593,3.1c-.108-.52-.173-.607-.433-.607s-.3.108-.3.65V16.034H53.04V3.336A4.1,4.1,0,0,1,53.668.715,3.1,3.1,0,0,1,56.052,0a3.431,3.431,0,0,1,2.231.542,3.856,3.856,0,0,1,.976,2.1l2.3,10.66c.087.369.152.455.391.455.26,0,.325-.108.325-.607V.217h2.817v12.7a4.091,4.091,0,0,1-.629,2.622,2.913,2.913,0,0,1-2.274.715A3.7,3.7,0,0,1,59.865,15.687Zm-20.021-.932a6.215,6.215,0,0,1-1.321-4.268V5.764a6.218,6.218,0,0,1,1.321-4.269C40.733.5,42.272,0,44.5,0s3.77.5,4.658,1.495a6.218,6.218,0,0,1,1.322,4.269v4.723a6.216,6.216,0,0,1-1.322,4.268c-.888,1-2.426,1.5-4.658,1.5S40.733,15.752,39.845,14.755Zm-19.327.651V12.675a12.267,12.267,0,0,0,4.529.867c1.733,0,2.383-.3,2.383-1.192a1.737,1.737,0,0,0-.477-1.148,5.8,5.8,0,0,0-.542-.5,7.921,7.921,0,0,0-.65-.563L22.9,7.713c-1.473-1.235-2.166-2.274-2.166-4.008C20.735,1.213,22.252,0,25.783,0A10.1,10.1,0,0,1,29.77.824v2.73a9.056,9.056,0,0,0-3.987-.845c-1.473,0-2.058.238-2.058,1.105,0,.607.282,1.04,1.148,1.755L27.82,8.06A10.662,10.662,0,0,1,29.813,10.1a3.841,3.841,0,0,1,.607,2.253c0,2.578-1.6,3.9-5.395,3.9A11.374,11.374,0,0,1,20.518,15.405Zm-16.726.151a4.713,4.713,0,0,1-1.04-2.34L0,.217H3.011L5.568,12.74c.174.758.368.91.91.91s.737-.13.91-.91L9.945.217h3.011l-2.751,13a4.529,4.529,0,0,1-1.062,2.34,3.818,3.818,0,0,1-2.665.694A3.925,3.925,0,0,1,3.792,15.557Zm29.1.477V.217h2.9V16.034Zm-17.744,0V.217h2.9V16.034Z" transform="translate(0 0)" fill="#22e0d7"/>
        <path id="ENABLER" d="M19.457,15.687a3.88,3.88,0,0,1-1.019-2.167L16.185,3.1c-.108-.52-.173-.607-.433-.607s-.3.108-.3.65V16.034H12.632V3.336A4.1,4.1,0,0,1,13.26.715,3.1,3.1,0,0,1,15.643,0a3.433,3.433,0,0,1,2.232.542,3.85,3.85,0,0,1,.975,2.1l2.3,10.66c.087.369.152.455.391.455.26,0,.325-.108.325-.607V.217h2.816v12.7a4.091,4.091,0,0,1-.628,2.622,2.914,2.914,0,0,1-2.275.715A3.7,3.7,0,0,1,19.457,15.687Zm67.925.347-3.337-5.959h-2.08v5.959h-2.9V2.817c0-1.821.78-2.6,2.6-2.6h3.553C88.4.217,90,1.863,90,5.157c0,2.578-.976,4.16-2.925,4.7l3.532,6.175Zm-18.352,0c-1.82,0-2.6-.78-2.6-2.6V2.817c0-1.821.78-2.6,2.6-2.6h7.475V2.925H69.983a.575.575,0,0,0-.65.65V6.609h6.305V9.317H69.333v3.358a.575.575,0,0,0,.65.651h6.522v2.708Zm-11.223,0c-1.821,0-2.6-.78-2.6-2.6V.217h2.9V12.675a.575.575,0,0,0,.65.651h5.655v2.708Zm-13.282,0c-1.82,0-2.6-.78-2.6-2.6V2.817c0-1.821.78-2.6,2.6-2.6h3.12c3.207,0,4.615,1.6,4.615,4.225a3.572,3.572,0,0,1-1.69,3.424,3.68,3.68,0,0,1,2.123,3.683c0,2.991-1.6,4.486-4.831,4.486Zm-7.474,0-1.019-4.507H30.55l-1,4.507H26.628l3.033-13A4.525,4.525,0,0,1,30.81.671,3.654,3.654,0,0,1,33.3,0a3.549,3.549,0,0,1,2.47.671A4.518,4.518,0,0,1,36.92,3.033l3.056,13Zm-34.45,0c-1.82,0-2.6-.78-2.6-2.6V2.817C0,1,.78.217,2.6.217h7.475V2.925H3.553a.575.575,0,0,0-.65.65V6.609h6.3V9.317H2.9v3.358a.575.575,0,0,0,.65.651h6.521v2.708Z" transform="translate(0.975 21.667)" fill="#313bd0"/>
      </g>
      <g id="Group_48" data-name="Group 48">
        <path id="Fill_1" data-name="Fill 1" d="M9.847,4.923A4.923,4.923,0,1,1,4.923,0,4.923,4.923,0,0,1,9.847,4.923" transform="translate(22.778 28.096)" fill="#313bd0"/>
        <path id="Fill_3" data-name="Fill 3" d="M9.422,4.711A4.711,4.711,0,1,1,4.711,0,4.711,4.711,0,0,1,9.422,4.711" transform="translate(11.39 26.131)" fill="#313bd0"/>
        <path id="Fill_5" data-name="Fill 5" d="M9.422,4.711A4.711,4.711,0,1,1,4.711,0,4.711,4.711,0,0,1,9.422,4.711" transform="translate(2.674 10.189)" fill="#313bd0"/>
        <path id="Fill_7" data-name="Fill 7" d="M8.288,4.144A4.144,4.144,0,1,1,4.144,0,4.144,4.144,0,0,1,8.288,4.144" transform="translate(13.194 1.341)" fill="#313bd0"/>
        <path id="Fill_9" data-name="Fill 9" d="M8.288,4.144A4.144,4.144,0,1,1,4.144,0,4.144,4.144,0,0,1,8.288,4.144" transform="translate(16.059 17.088)" fill="#313bd0"/>
        <path id="Fill_11" data-name="Fill 11" d="M5.425,2.713A2.713,2.713,0,1,1,2.713,0,2.713,2.713,0,0,1,5.425,2.713" transform="translate(8.167 20.431)" fill="#22e0d7"/>
        <path id="Fill_13" data-name="Fill 13" d="M5.995,3A3,3,0,1,1,3,0a3,3,0,0,1,3,3" transform="translate(0 22.858)" fill="#22e0d7"/>
        <path id="Fill_16" data-name="Fill 16" d="M8.288,4.144A4.144,4.144,0,1,1,4.144,0,4.144,4.144,0,0,1,8.288,4.144" transform="translate(10.55 38.969)" fill="#313bd0"/>
        <path id="Fill_18" data-name="Fill 18" d="M8.288,4.144A4.144,4.144,0,1,1,4.144,0,4.144,4.144,0,0,1,8.288,4.144" transform="translate(2.261 30.235)" fill="#313bd0"/>
        <path id="Fill_20" data-name="Fill 20" d="M8.288,4.144A4.144,4.144,0,1,1,4.144,0,4.144,4.144,0,0,1,8.288,4.144" transform="translate(38.378 9.276)" fill="#313bd0"/>
        <path id="Fill_22" data-name="Fill 22" d="M7.96,3.98A3.98,3.98,0,1,1,3.98,0,3.98,3.98,0,0,1,7.96,3.98" transform="translate(32.363 38.75)" fill="#313bd0"/>
        <path id="Fill_24" data-name="Fill 24" d="M9.422,4.711A4.711,4.711,0,1,1,4.711,0,4.711,4.711,0,0,1,9.422,4.711" transform="translate(23.519 8.709)" fill="#313bd0"/>
        <path id="Fill_26" data-name="Fill 26" d="M5.486,2.743A2.743,2.743,0,1,1,2.743,0,2.743,2.743,0,0,1,5.486,2.743" transform="translate(25.487 0)" fill="#22e0d7"/>
        <path id="Fill_29" data-name="Fill 29" d="M5.486,2.743A2.743,2.743,0,1,1,2.743,0,2.743,2.743,0,0,1,5.486,2.743" transform="translate(26.148 20.142)" fill="#22e0d7"/>
        <path id="Fill_31" data-name="Fill 31" d="M5.486,2.743A2.743,2.743,0,1,1,2.743,0,2.743,2.743,0,0,1,5.486,2.743" transform="translate(41.244 33.96)" fill="#22e0d7"/>
        <path id="Fill_33" data-name="Fill 33" d="M5.486,2.743A2.743,2.743,0,1,1,2.743,0,2.743,2.743,0,0,1,5.486,2.743" transform="translate(25.487 44.327)" fill="#22e0d7"/>
        <path id="Fill_36" data-name="Fill 36" d="M5.107,2.553A2.553,2.553,0,1,1,2.553,0,2.553,2.553,0,0,1,5.107,2.553" transform="translate(34.25 3.184)" fill="#22e0d7"/>
        <path id="Fill_38" data-name="Fill 38" d="M5.107,2.554A2.553,2.553,0,1,1,2.553,0,2.553,2.553,0,0,1,5.107,2.554" transform="translate(33.272 17.589)" fill="#22e0d7"/>
        <path id="Fill_40" data-name="Fill 40" d="M5.107,2.554A2.553,2.553,0,1,1,2.554,0,2.553,2.553,0,0,1,5.107,2.554" transform="translate(34.172 28.853)" fill="#22e0d7"/>
        <path id="Fill_42" data-name="Fill 42" d="M5.107,2.554A2.553,2.553,0,1,1,2.553,0,2.553,2.553,0,0,1,5.107,2.554" transform="translate(21.041 38.524)" fill="#22e0d7"/>
        <path id="Fill_44" data-name="Fill 44" d="M5.486,2.743A2.743,2.743,0,1,1,2.743,0,2.743,2.743,0,0,1,5.486,2.743" transform="translate(14.298 10.677)" fill="#22e0d7"/>
        <path id="Fill_46" data-name="Fill 46" d="M10.427,5.214A5.214,5.214,0,1,1,5.214,0a5.214,5.214,0,0,1,5.214,5.214" transform="translate(39.824 20.415)" fill="#313bd0"/>
      </g>
    </g>
  </g>
</svg>
